# xmcd CD database file
#
# Track frame offsets:
#	150
#	17093
#	25334
#	40555
#	55172
#	67400
#	80726
#	96285
#	106199
#	118338
#	130239
#	142297
#	152542
#	166333
#	182047
#
# Disc length: 2552 seconds
#
# Revision: 0
# Processed by: cddbd v1.4PL0 Copyright (c) Steve Scherf et al.
# Submitted via: CDex 1.51
#
DISCID=d309f60f
DTITLE=Prazec - Hosi od Bobri reky
DYEAR=1900
DGENRE=Country
TTITLE0=Vahy
TTITLE1=Ty a ja
TTITLE2=Studanka
TTITLE3=Prani
TTITLE4=Cas
TTITLE5=City
TTITLE6=Jestrabi
TTITLE7=Hosi od Bobri reky
TTITLE8=Nekonecny den
TTITLE9=Vandrovni
TTITLE10=Loutky
TTITLE11=1989
TTITLE12=Zidka
TTITLE13=Karamely
TTITLE14=V desti
EXTD=
EXTT0=
EXTT1=
EXTT2=
EXTT3=
EXTT4=
EXTT5=
EXTT6=
EXTT7=
EXTT8=
EXTT9=
EXTT10=
EXTT11=
EXTT12=
EXTT13=
EXTT14=
PLAYORDER=
